<svg width="32" height="32" viewBox="0 0 32 32" fill="none" xmlns="http://www.w3.org/2000/svg">
    <g clip-path="url(#clip0_7_27)">
        <path d="M0 0H32V32H0V0Z" fill="#FFBD59"/>
        <path d="M11.3356 17.4956C11.6478 16.8422 11.6134 15.9911 11.2378 15.0989C10.5745 13.5211 9.43113 12.62 8.45891 12.9067C7.4878 13.1933 7.09113 14.5233 7.47224 16.2156C7.6778 17.13 8.15113 17.8433 8.80558 18.2233C9.11891 18.4056 9.45446 18.4989 9.78224 18.4989C9.94447 18.4989 10.1045 18.4767 10.2589 18.43C10.7311 18.2911 11.1134 17.9589 11.3356 17.4956Z" fill="black"/>
        <path d="M11.9211 13.5111C12.31 13.8656 12.78 14.0556 13.2578 14.0556C13.3089 14.0556 13.36 14.0533 13.41 14.0489C13.9433 14.0044 14.4267 13.7344 14.7722 13.29C15.2545 12.6689 15.42 11.7644 15.2389 10.7444C14.9156 8.93111 13.9256 7.73 12.83 7.82222C11.7389 7.91445 11.0033 9.23334 11 11.1022C10.9978 12.1122 11.3245 12.9667 11.9211 13.5111Z" fill="black"/>
        <path d="M23.6 12.9067C22.6278 12.62 21.4844 13.5211 20.8211 15.0989C20.4455 15.9911 20.4111 16.8422 20.7233 17.4956C20.9455 17.9589 21.3278 18.2911 21.8 18.43C21.9544 18.4767 22.1144 18.4989 22.2766 18.4989C22.6044 18.4989 22.94 18.4056 23.2533 18.2233C23.9066 17.8433 24.3811 17.13 24.5866 16.2156C24.9678 14.5233 24.5711 13.1933 23.6 12.9067Z" fill="black"/>
        <path d="M18.6489 14.0489C18.6989 14.0533 18.75 14.0556 18.8 14.0556C19.2789 14.0556 19.7489 13.8656 20.1378 13.5111C20.7344 12.9667 21.0611 12.1122 21.0589 11.1022C21.0555 9.23334 20.32 7.91445 19.2289 7.82222C18.1344 7.73 17.1433 8.93111 16.82 10.7444C16.6389 11.7644 16.8044 12.6689 17.2866 13.29C17.6322 13.7344 18.1155 14.0044 18.6489 14.0489Z" fill="black"/>
        <path d="M20.16 18.9389C18.8678 17.9945 18.34 16.5489 18.3345 16.5345L18.3323 16.5278C17.6067 14.76 16.2856 14.6889 16.0323 14.6933C15.7745 14.6889 14.4534 14.76 13.7267 16.53C13.7211 16.5456 13.1 18.0933 11.9011 18.9378C10.9278 19.6222 10.0734 20.92 10.5945 22.5067C10.61 22.5589 10.7778 23.1056 11.2689 23.5711C12.1156 24.3711 13.23 24.2867 14.0156 24.0733L14.02 24.0722C14.0278 24.07 14.7911 23.8311 15.4667 23.6622C15.8356 23.5689 16.2245 23.5689 16.5934 23.6622C17.2689 23.8311 18.0323 24.07 18.0389 24.0722L18.0445 24.0733C18.4256 24.1767 18.7667 24.22 19.07 24.22C19.8989 24.22 20.4489 23.8945 20.7911 23.5711C21.2823 23.1056 21.45 22.5589 21.4656 22.5067C22.1078 20.55 20.6289 19.2811 20.16 18.9389Z" fill="black"/>
    </g>
    <defs>
        <clipPath id="clip0_7_27">
            <rect width="32" height="32" rx="7" fill="white"/>
        </clipPath>
    </defs>
</svg>